<svg xmlns="http://www.w3.org/2000/svg" width="148.731" height="128.743" viewBox="0 0 148.731 128.743"><defs><style>.a{fill:#6a605d;fill-rule:evenodd;}</style></defs><path class="a" d="M691.546,771.679l2.715,1.692V783.8H643.038V773.371l3.032-1.734h.023V738.386h.949l2.025-12.72a1,1,0,1,1,.316,0l2.018,12.72h.952v6.729c1.343-1.555,4.834-5.307,8.707-6.866a2.143,2.143,0,0,0,1.461-1.718V725.206h.815v-7.475h.2l.776-5.464a.468.468,0,1,1,.108,0l.769,5.464h.2v.5l2.057-1.343,1.281-13.043a.914.914,0,1,1,.329,0l1.284,13.056,2.041,1.333v-.522h.2l.773-5.46a.468.468,0,1,1,.108,0l.772,5.46h.2v7.491h.835v11.576c0,.685.668,1.187,1.363,1.467,3.837,1.542,7.3,5.229,8.665,6.813v-6.621h.952l2.018-12.723a1.006,1.006,0,1,1,.316,0l2.021,12.723h.952v33.238m-25.786-1.252V740.384c-12.811,3.644-13.408,18.21-13.408,18.21v11.833h5.356V756.5h.336l1.252-8.857a.761.761,0,1,1,.179,0l1.249,8.857h.335v13.923Zm.864-45.221.57-5.8-1.809,1.183v4.613Zm3.961-5.783.567,5.783h1.226V720.6Zm14.7,51V758.017c-.271-2.725-2.067-14.357-13.268-17.607v30.017h4.72V756.5h.346l1.245-8.805a.763.763,0,1,1,.176,0l1.242,8.805h.342v13.923Z" transform="translate(-595.864 -702.038)"/><path class="a" d="M638.94,744.976l-6.5-9.278a6.2,6.2,0,0,1-.453-.8v10.079h-3.416V731.3h4.473l6.507,9.278a6.1,6.1,0,0,1,.447.8V731.3h3.419v13.672H638.94" transform="translate(-628.567 -635.899)"/><path class="a" d="M634.017,744.976V731.3h13.265v2.927h-9.848v2.324h8.616v2.931h-8.616v2.559H647.4v2.931" transform="translate(-616.249 -635.9)"/><path class="a" d="M656.522,744.976h-4.3l-2.145-7.873-.528-2.09-.509,2.09-2.109,7.873h-4.316L638.69,731.3h3.768l2.442,9.9,2.735-9.9H651.5l2.716,9.9,2.442-9.9h3.772" transform="translate(-605.691 -635.9)"/><path class="a" d="M661,741.037c-1.268,3.221-4.062,4.335-7.344,4.335-4.531,0-8.182-2.168-8.182-7.09s3.67-7.051,8.182-7.051c3.38,0,6.076,1.366,7.286,4.668l-3.26.783a3.863,3.863,0,0,0-4-2.52c-2.68,0-4.711,1.209-4.711,4.12s2.015,4.16,4.711,4.16c1.659,0,3.436-.486,4.1-2.187l3.221.782" transform="translate(-590.354 -636.064)"/><path class="a" d="M663.522,744.975l-1.389-2.928h-6.484l-1.385,2.928h-3.847L657.1,731.3h3.615l6.657,13.672m-8.456-10.119-1.992,4.319h3.944Z" transform="translate(-579.188 -635.902)"/><path class="a" d="M663.346,745.406c-3.341,0-6.6-.45-7.521-4.218l3.224-.8c.486,1.7,1.933,2.168,4.668,2.168,2.148,0,3.436-.45,3.436-1.542,0-2.344-10.976.234-10.976-5.411,0-3.42,3.752-4.375,6.875-4.375,3.26,0,6.213.567,7.384,3.984l-3.283.8c-.505-1.444-2.031-1.933-4.16-1.933-1.389,0-3.283.251-3.283,1.448,0,2.478,10.921-.277,10.921,5.447,0,3.886-4.042,4.433-7.286,4.433" transform="translate(-566.964 -636.076)"/><path class="a" d="M669.612,734.234v10.745H666.1V734.234h-5.372V731.3h14.255v2.931" transform="translate(-555.891 -635.901)"/><path class="a" d="M665.787,744.976V731.3h3.419v10.741h8.261v2.931" transform="translate(-544.454 -635.9)"/><path class="a" d="M670.088,744.976V731.3h13.261v2.927h-9.842v2.324h8.613v2.931h-8.613v2.559h9.959v2.931" transform="translate(-534.734 -635.9)"/><path class="a" d="M637.528,751.28c-4.609,0-7.814-2.112-7.814-7.054s3.2-7.009,7.814-7.009c2.732,0,5.78.821,6.66,3.768l-1.62.372c-.547-2.148-3.107-2.774-5.02-2.774-3.713,0-6.174,1.7-6.174,5.643,0,3.85,2.54,5.685,6.174,5.685,1.718,0,4.336-.43,5.04-2.282l1.679.27c-.959,2.735-4.2,3.38-6.738,3.38" transform="translate(-625.975 -622.537)"/><path class="a" d="M648.4,750.949l-1.992-4.1h-8.065l-1.992,4.1h-1.819l6.839-13.672h2.011l6.836,13.672m-7.834-12.443-3.38,6.993h6.742Z" transform="translate(-615.08 -622.401)"/><path class="a" d="M646.835,738.645v12.3h-1.659v-12.3h-6.249v-1.369h14.158v1.369" transform="translate(-605.155 -622.402)"/><path class="a" d="M656.569,750.949v-6.37h-10.8v6.37h-1.663V737.277h1.663v5.936h10.8v-5.936h1.662v13.672" transform="translate(-593.449 -622.401)"/><path class="a" d="M649.576,750.949V737.277H661.9v1.369H651.238v4.567h9.431v1.366h-9.431v5h10.777v1.369" transform="translate(-581.089 -622.401)"/><path class="a" d="M660.71,750.948h-6.331V737.276h5.92c4.609,0,8.1,1.858,8.1,6.817s-3.318,6.855-7.693,6.855m-.411-12.3H656v10.937h4.512c3.71,0,6.191-1.522,6.191-5.49,0-3.983-2.676-5.447-6.406-5.447" transform="translate(-570.234 -622.403)"/><path class="a" d="M671.709,750.948l-3.909-5.78h-6.562v5.78h-1.659V737.276h9.2c2.363,0,4.512,1.389,4.512,3.948a3.918,3.918,0,0,1-3.71,3.886l4,5.838h-1.874m-2.911-12.3h-7.56V743.8h7.56a2.588,2.588,0,1,0,0-5.154" transform="translate(-558.483 -622.403)"/><path class="a" d="M678.22,750.949l-1.989-4.1h-8.068l-1.992,4.1h-1.819l6.839-13.672H673.2l6.836,13.672m-7.834-12.443-3.377,6.993h6.738Z" transform="translate(-547.696 -622.401)"/><path class="a" d="M669.881,750.949V737.277h1.659v12.3h9.238v1.369" transform="translate(-535.201 -622.401)"/></svg>